<svg width="67" height="24" viewBox="0 0 67 24" fill="none" xmlns="http://www.w3.org/2000/svg">
<path id="Vector" d="M0.702425 23.1645C3.54931 16.4364 7.97745 11.0777 13.9868 7.08841C19.9962 3.0991 26.6494 1.13083 33.9464 1.18359C39.378 1.22286 44.5132 2.41221 49.3521 4.75163C54.1909 7.09105 58.2959 10.3853 61.6669 14.6345L61.7663 0.890934L66.7041 0.926636L66.5399 23.6406L43.826 23.4763L43.8617 18.5385L58.5928 18.645C55.6583 14.7282 52.0454 11.6707 47.7542 9.47239C43.463 7.2741 38.8759 6.1573 33.993 6.122C28.0676 6.07915 22.6111 7.5897 17.6235 10.6537C12.6358 13.7176 8.80599 17.901 6.13401 23.2038L0.702425 23.1645Z" fill="#F7AB39"/>
</svg>
