<svg width="48" height="48" viewBox="0 0 48 48" fill="none" xmlns="http://www.w3.org/2000/svg">
<g id="arcticons:samsung-pay">
<path id="Vector" d="M40.5 5.5H7.5C6.39543 5.5 5.5 6.39543 5.5 7.5V40.5C5.5 41.6046 6.39543 42.5 7.5 42.5H40.5C41.6046 42.5 42.5 41.6046 42.5 40.5V7.5C42.5 6.39543 41.6046 5.5 40.5 5.5Z" stroke="#FFFEFE" stroke-linecap="round" stroke-linejoin="round"/>
<g id="Group">
<path id="Vector_2" d="M11.5 27.946V15.98H15.417C17.632 15.98 19.427 17.779 19.427 19.998C19.427 22.217 17.632 24.016 15.417 24.016H11.5M36.5 24.99V29.028C36.5 29.8212 36.1849 30.582 35.624 31.1429C35.063 31.7039 34.3023 32.019 33.509 32.019C33.1161 32.0195 32.7271 31.9424 32.3641 31.792C32.0011 31.6417 31.6715 31.4211 31.394 31.143" stroke="#FFFEFE" stroke-linecap="round" stroke-linejoin="round"/>
<path id="Vector_3" d="M36.4999 20.054V24.99C36.4997 25.783 36.1844 26.5436 35.6235 27.1043C35.0627 27.665 34.302 27.98 33.5089 27.98C32.7159 27.98 31.9552 27.665 31.3943 27.1043C30.8334 26.5436 30.5182 25.783 30.5179 24.99V20.054M27.5259 24.99C27.5257 25.7829 27.2106 26.5432 26.6499 27.1039C26.0892 27.6646 25.3289 27.9797 24.5359 27.98C24.1432 27.9801 23.7542 27.9029 23.3913 27.7527C23.0283 27.6025 22.6985 27.3823 22.4207 27.1046C22.1429 26.827 21.9224 26.4973 21.772 26.1345C21.6216 25.7716 21.5441 25.3827 21.5439 24.99V23.045C21.5442 22.2519 21.8594 21.4914 22.4203 20.9306C22.9812 20.3699 23.7419 20.055 24.5349 20.055C25.328 20.055 26.0887 20.3699 26.6495 20.9306C27.2104 21.4914 27.5257 22.2519 27.5259 23.045M27.5259 27.981V20.054" stroke="#FFFEFE" stroke-linecap="round" stroke-linejoin="round"/>
</g>
</g>
</svg>
